PathFileType	4	(X/Y/Z)	SUBJ62_1_walk_RCNL2025.trc
DataRate	CameraRate	NumFrames	NumMarkers	Units	OrigDataRate	OrigDataStartFrame	OrigNumFrames
100	100	8	25	mm	100	197	315
Frame#	Time	R_Shoulder			L_Shoulder			C7			J_Notch			R_Elbow			L_Elbow			R_Wrist			L_Wrist			R_Asis			L_Asis			Sacral			Thoracic			Sternum			R_Thigh_Lateral			R_Knee_Lateral			R_Shank_Lateral			R_Ankle_Lateral			R_Heel			R_Toe			L_Thigh_Lateral			L_Knee_Lateral			L_Shank_Lateral			L_Ankle_Lateral			L_Heel			L_Toe		
		X1	Y1	Z1	X2	Y2	Z2	X3	Y3	Z3	X4	Y4	Z4	X5	Y5	Z5	X6	Y6	Z6	X7	Y7	Z7	X8	Y8	Z8	X9	Y9	Z9	X10	Y10	Z10	X11	Y11	Z11	X12	Y12	Z12	X13	Y13	Z13	X14	Y14	Z14	X15	Y15	Z15	X16	Y16	Z16	X17	Y17	Z17	X18	Y18	Z18	X19	Y19	Z19	X20	Y20	Z20	X21	Y21	Z21	X22	Y22	Z22	X23	Y23	Z23	X24	Y24	Z24	X25	Y25	Z25
197	1.96000000	974.224365	1281.125488	-25.044691	966.824524	1292.621582	-365.301483	898.987122	1353.251343	-197.825851	1029.337646	1266.529175	-199.416229	918.174316	984.419861	34.016300	978.241272	993.162537	-442.728882	974.378571	771.361420	32.605066	1079.272644	798.055115	-433.558441	1015.347107	871.003235	-57.008446	1037.630615	874.307129	-315.214294	852.023010	871.409119	-203.019379	837.226379	1156.788086	-203.026352	1049.652222	1066.697266	-194.928787	1041.547974	485.570496	4.287696	1075.282837	436.132446	-61.226166	982.672974	301.118530	-21.687370	852.117615	158.263992	-89.115967	802.627686	171.489288	-133.347504	925.459167	83.516457	-95.712502	971.632446	472.841492	-358.731354	960.809631	409.946808	-306.621155	962.576904	213.019730	-331.172546	940.206726	49.169296	-259.522034	880.101685	50.433617	-218.137177	1047.257568	34.046455	-244.986298
198	1.97000000	984.532593	1280.681396	-24.994097	977.698486	1293.381714	-365.304993	909.774780	1353.249268	-197.909302	1040.066528	1266.460693	-199.552872	922.174683	984.536438	32.593605	994.575806	994.710632	-444.271881	974.797058	770.511169	32.566887	1102.055420	803.050110	-434.465240	1026.376953	871.604980	-57.911903	1047.050903	873.630249	-316.297394	862.018616	871.438538	-202.603943	847.849365	1156.854248	-203.604126	1060.059448	1066.579224	-195.566605	1060.591064	487.929321	4.245550	1093.604004	438.534698	-62.220753	1006.623230	298.350220	-22.722980	883.225952	150.151306	-89.927040	832.605042	160.294525	-134.344742	960.429077	79.826370	-96.072159	974.468628	472.843506	-358.888702	962.848450	409.955963	-306.773193	963.235046	212.986572	-331.256683	940.396667	49.242050	-259.420807	880.346130	50.737167	-217.942413	1047.404175	34.020260	-244.963348
199	1.98000000	994.929016	1280.027466	-24.934086	988.555176	1293.895508	-365.302307	920.578979	1353.054443	-197.971710	1050.800659	1266.177612	-199.698441	926.103699	984.621155	31.266447	1010.723938	996.092468	-445.685638	975.594574	769.727539	32.498069	1124.611145	808.132904	-435.145203	1037.400879	871.929993	-58.797688	1056.400269	872.727661	-317.391449	872.025757	871.276672	-202.073120	858.479431	1156.731689	-204.106491	1070.470093	1066.252075	-196.205658	1079.464600	490.194611	4.404970	1111.316406	440.622131	-63.121899	1030.415161	295.340759	-23.649815	914.994751	141.562424	-90.664627	863.468872	148.592072	-135.143784	995.981934	76.011864	-96.588326	977.410889	472.808441	-359.027985	964.976013	409.958710	-306.877930	964.098145	212.961823	-331.268677	940.605713	49.326775	-259.295074	880.617554	51.067520	-217.764389	1047.556152	33.981613	-244.914749
200	1.99000000	1005.417847	1279.177124	-24.860126	999.403076	1294.151245	-365.287933	931.399231	1352.665894	-198.006958	1061.539185	1265.676758	-199.846924	930.400818	984.734924	30.215553	1026.697632	997.289978	-446.975983	976.824799	768.999329	32.416171	1146.906738	813.271667	-435.596313	1048.421631	871.995605	-59.646797	1065.685913	871.617493	-318.469940	882.055359	870.923767	-201.450851	869.114990	1156.422363	-204.522034	1080.884766	1065.711304	-196.837433	1097.925293	492.292603	4.662930	1128.362427	442.376160	-63.929016	1054.082520	292.159607	-24.446861	947.391724	132.680588	-91.342216	895.223145	136.603333	-135.743744	1032.064453	72.250999	-97.256302	980.480469	472.727966	-359.147308	967.223938	409.951447	-306.933167	965.131836	212.934677	-331.222504	940.828918	49.421780	-259.144165	880.910522	51.430748	-217.594498	1047.701904	33.929352	-244.853317
201	2.00000000	1015.997803	1278.148682	-24.767632	1010.245300	1294.146240	-365.254333	942.232849	1352.086060	-198.009537	1072.279663	1264.961670	-199.990143	935.228943	984.872986	29.482775	1042.507812	998.296936	-448.145508	978.536896	768.320038	32.334527	1168.909241	818.436676	-435.822098	1059.448486	871.821777	-60.440777	1074.928101	870.327454	-319.502441	892.119934	870.379395	-200.759995	879.754028	1155.929810	-204.840225	1091.306641	1064.959229	-197.452850	1115.743530	494.149292	4.940794	1144.689087	443.778259	-64.639229	1077.631958	288.866943	-25.105125	980.384583	123.718628	-91.978706	927.843811	124.552109	-136.187119	1068.601440	68.736252	-98.047119	983.710999	472.599335	-359.244659	969.626953	409.933014	-306.941223	966.283447	212.898361	-331.133911	941.060242	49.526249	-258.968872	881.212219	51.837227	-217.417831	1047.836426	33.869343	-244.793640
202	2.01000000	1026.665161	1276.963867	-24.652916	1021.080261	1293.886353	-365.193268	953.076050	1351.321411	-197.974899	1083.019775	1264.041992	-200.119171	940.551331	984.994690	29.013159	1058.164673	999.118835	-449.193085	980.769379	767.684021	32.259878	1190.585144	823.600952	-435.831512	1070.496582	871.427429	-61.164402	1084.164673	868.894043	-320.453705	902.233093	869.643677	-200.021011	890.394287	1155.258911	-205.052704	1101.739258	1064.005249	-198.041992	1132.728027	495.693695	5.190427	1160.260254	444.809357	-65.246078	1101.046753	285.520874	-25.623823	1013.922852	114.900742	-92.589081	961.275146	112.662773	-136.537781	1105.487183	65.662598	-98.918549	987.138916	472.422119	-359.317535	972.216309	409.904541	-306.907288	967.498108	212.851395	-331.016449	941.294250	49.642097	-258.771881	881.507751	52.299252	-217.219757	1047.960938	33.808716	-244.744125
203	2.02000000	1037.416870	1275.646362	-24.515003	1031.902344	1293.383667	-365.096924	963.923157	1350.381104	-197.898453	1093.757690	1262.933350	-200.226761	946.292664	985.065979	28.737925	1073.675537	999.768311	-450.115265	983.545990	767.084564	32.193405	1211.899170	828.740723	-435.634659	1081.587402	870.829895	-61.806366	1093.438965	867.355408	-321.293579	912.408386	868.719238	-199.250717	901.034851	1154.414062	-205.152145	1112.186035	1062.866455	-198.594025	1148.742188	496.859314	5.393361	1175.062378	445.448822	-65.739532	1124.292725	282.181793	-26.004120	1047.927856	106.451317	-93.174698	995.434692	101.162300	-136.855759	1142.574829	63.210682	-99.825897	990.795837	472.195709	-359.362701	975.015625	409.869324	-306.836670	968.735168	212.798096	-330.880035	941.526245	49.775818	-258.557800	881.790100	52.828320	-216.993149	1048.077271	33.751732	-244.707031
204	2.03000000	1048.253174	1274.219238	-24.355579	1042.702759	1292.654907	-364.959412	974.767151	1349.274902	-197.775421	1104.492432	1261.654907	-200.308746	952.397400	985.070251	28.603462	1089.042725	1000.261353	-450.908142	986.871399	766.511047	32.132758	1232.815186	833.834229	-435.239319	1092.744995	870.045837	-62.359604	1102.781982	865.743408	-322.007294	922.657898	867.612610	-198.460449	911.676514	1153.400513	-205.131546	1122.649414	1061.564819	-199.098541	1163.712769	497.584412	5.556365	1189.105347	445.675018	-66.106384	1147.320312	278.915619	-26.244070	1082.285767	98.588028	-93.717972	1030.200439	90.275879	-137.176544	1179.671753	61.531170	-100.733879	994.704895	471.919891	-359.375336	978.041626	409.833313	-306.733826	969.981323	212.749985	-330.730347	941.752014	49.940079	-258.332397	882.065430	53.435570	-216.740173	1048.186768	33.700333	-244.680786
